# Blender v3.6.23 OBJ File: ''
# www.blender.org
mtllib TV.mtl
o led_tv
v -0.925747 0.291364 0.034169
v 0.782212 0.291364 0.034169
v -1.078840 0.152694 0.120765
v 0.935306 0.152694 0.120765
v -1.078840 1.237234 0.120765
v 0.935306 1.237234 0.120765
v -0.925747 1.098564 0.034169
v 0.782212 1.098564 0.034169
v -1.078840 1.237234 0.087068
v -1.078840 0.152694 0.087068
v 0.935306 0.152694 0.087068
v 0.935306 1.237234 0.087068
v -1.062716 1.212640 0.057544
v -1.062716 0.177288 0.057544
v 0.919181 0.177288 0.057544
v 0.919181 1.212640 0.057544
v -0.848888 1.062240 -0.010621
v 0.705354 1.062240 -0.010621
v 0.705354 0.327688 -0.010621
v -0.848888 0.327688 -0.010621
v -0.774671 1.005777 -0.026231
v 0.631136 1.005777 -0.026231
v 0.631136 0.384151 -0.026231
v -0.774671 0.384151 -0.026231
v -1.047853 0.207233 0.120765
v 0.904319 0.207233 0.120765
v 0.904319 1.206247 0.120765
v -1.047853 1.206247 0.120765
v 0.128127 1.005777 -0.026231
v 0.128127 0.384151 -0.026231
v 0.128124 0.327688 -0.010621
v 0.128121 0.291364 0.034169
v 0.128115 0.177288 0.057544
v 0.128114 0.152694 0.087068
v 0.128114 0.152694 0.120765
v 0.128116 0.207233 0.120765
v 0.128116 1.206247 0.120765
v 0.128114 1.237234 0.120765
v 0.128114 1.237234 0.087068
v 0.128115 1.212640 0.057544
v 0.128121 1.098564 0.034169
v 0.128124 1.062240 -0.010621
v -0.271791 1.005777 -0.026231
v -0.271791 0.384151 -0.026231
v -0.271743 0.327688 -0.010621
v -0.271694 0.291364 0.034169
v -0.271607 0.177288 0.057544
v -0.271597 0.152694 0.087068
v -0.271597 0.152694 0.120765
v -0.271616 0.207233 0.120765
v -0.271616 1.206247 0.120765
v -0.271597 1.237234 0.120765
v -0.271597 1.237234 0.087068
v -0.271607 1.212640 0.057544
v -0.271694 1.098564 0.034169
v -0.271743 1.062240 -0.010621
v 0.128127 0.475842 -0.026231
v -0.271791 0.475842 -0.026231
v -0.774671 0.475842 -0.026231
v -0.848888 0.436036 -0.010621
v -0.925747 0.410428 0.034169
v -1.062716 0.330005 0.057544
v -1.078840 0.312666 0.087068
v -1.078840 0.312666 0.120765
v -1.047853 0.354590 0.120765
v 0.904319 0.354590 0.120765
v 0.935306 0.312666 0.120765
v 0.935306 0.312666 0.087068
v 0.919181 0.330005 0.057544
v 0.782212 0.410428 0.034169
v 0.705354 0.436036 -0.010621
v 0.631136 0.475842 -0.026231
v -0.256262 0.347187 0.001765
v 0.112632 0.347187 0.001765
v -0.256297 0.386440 -0.009409
v 0.112634 0.386434 -0.009408
v 0.112634 0.460349 -0.009098
v -0.256297 0.460349 -0.009098
v -0.240804 0.383622 -0.029965
v 0.097141 0.383610 -0.029961
v -0.240782 0.356346 -0.068896
v -0.236482 0.356353 -0.073196
v -0.236504 0.383624 -0.073129
v -0.240804 0.383616 -0.068829
v 0.092839 0.356352 -0.073196
v 0.097139 0.356346 -0.068896
v 0.097141 0.383605 -0.068829
v 0.092840 0.383610 -0.073129
v 0.092840 0.463870 -0.030117
v 0.099669 0.463295 -0.026686
v 0.097141 0.459569 -0.030108
v 0.097141 0.399486 -0.068828
v 0.092840 0.396512 -0.073128
v 0.092840 0.404365 -0.070705
v -0.240804 0.459569 -0.030109
v -0.243332 0.463295 -0.026686
v -0.236504 0.463870 -0.030117
v -0.236504 0.396512 -0.073128
v -0.240804 0.399486 -0.068828
v -0.236504 0.404365 -0.070705
v -0.236482 0.356352 -0.022631
v -0.242978 0.355051 -0.019170
v -0.240785 0.360504 -0.023747
v -0.240782 0.356352 -0.026931
v -0.236482 0.111219 -0.022631
v -0.240782 0.111219 -0.026931
v 0.097139 0.356352 -0.026931
v 0.097139 0.360504 -0.023747
v 0.099337 0.355052 -0.019170
v 0.092839 0.356352 -0.022631
v 0.097139 0.111219 -0.026931
v 0.092839 0.111219 -0.022631
v -0.240782 0.111219 -0.068896
v -0.236482 0.111219 -0.073196
v 0.092839 0.111219 -0.073196
v 0.097139 0.111219 -0.068896
v -0.287262 0.079955 0.018793
v -0.282205 0.079955 0.023850
v -0.376331 0.058932 0.116810
v -0.380223 0.058932 0.112918
v 0.138562 0.079955 0.023850
v 0.143619 0.079955 0.018793
v 0.236580 0.058932 0.112918
v 0.232688 0.058932 0.116810
v -0.282205 0.079955 -0.119677
v -0.287262 0.079955 -0.114620
v -0.380223 0.058932 -0.208746
v -0.376331 0.058932 -0.212637
v 0.143619 0.079955 -0.114620
v 0.138562 0.079955 -0.119677
v 0.232688 0.058932 -0.212637
v 0.236580 0.058932 -0.208746
v -0.380223 0.035889 0.112918
v -0.376331 0.035889 0.116810
v 0.236580 0.035889 0.112918
v 0.232688 0.035889 0.116810
v -0.376331 0.035889 -0.212637
v -0.380223 0.035889 -0.208746
v 0.236580 0.035889 -0.208746
v 0.232688 0.035889 -0.212637
v -0.242155 0.110295 -0.023407
v -0.240005 0.110295 -0.021258
v 0.096362 0.110295 -0.021258
v 0.098512 0.110295 -0.023407
v -0.240005 0.110295 -0.074569
v -0.242155 0.110295 -0.072420
v 0.098512 0.110295 -0.072420
v 0.096362 0.110295 -0.074569
v 0.179022 0.797315 -0.021981
v 0.174771 0.793064 -0.021981
v 0.173614 0.802486 -0.026231
v 0.584493 0.793064 -0.021981
v 0.580242 0.797315 -0.021981
v 0.585650 0.802486 -0.026231
v 0.580242 0.515275 -0.021981
v 0.584493 0.519525 -0.021981
v 0.589067 0.511408 -0.026231
v 0.174771 0.519525 -0.021981
v 0.179022 0.515275 -0.021981
v 0.170197 0.511408 -0.026231
v 0.179022 0.793064 -0.009228
v 0.174771 0.793064 -0.013478
v 0.179022 0.797315 -0.013478
v 0.584493 0.793064 -0.013478
v 0.580242 0.793064 -0.009228
v 0.580242 0.797315 -0.013478
v 0.580242 0.515275 -0.013478
v 0.580242 0.519525 -0.009228
v 0.584493 0.519525 -0.013478
v 0.174771 0.519525 -0.013478
v 0.179022 0.519525 -0.009228
v 0.179022 0.515275 -0.013478
v -1.047853 0.207233 0.093687
v 0.904319 0.207233 0.093687
v 0.904319 1.206247 0.093687
v -1.047853 1.206247 0.093687
v 0.128116 0.207233 0.093687
v 0.128116 1.206247 0.093687
v -0.271616 0.207233 0.093687
v -0.271616 1.206247 0.093687
v -1.047853 0.354590 0.093687
v -0.271616 0.354590 0.093687
v 0.128116 0.354590 0.093687
v 0.904319 0.354590 0.093687
vt 0.684073 0.731485
vt 0.684073 0.556972
vt 0.697107 0.556972
vt 0.697107 0.731485
vt 0.931567 0.731485
vt 0.931567 0.556972
vt 0.944600 0.556972
vt 0.944600 0.731485
vt 0.084420 0.557129
vt 0.084420 0.397301
vt 0.251975 0.396680
vt 0.252846 0.557129
vt 0.731690 0.283025
vt 0.931567 0.283025
vt 0.931567 0.296059
vt 0.731690 0.296059
vt 0.931567 0.744519
vt 0.731690 0.744519
vt 0.731690 0.731485
vt 0.018674 0.648677
vt 0.299197 0.648676
vt 0.304708 0.665465
vt 0.010858 0.665465
vt 0.347734 0.648677
vt 0.347734 0.397243
vt 0.364523 0.397240
vt 0.364523 0.653801
vt 0.299197 0.018781
vt 0.018674 0.018781
vt 0.010858 0.001993
vt 0.304708 0.001992
vt 0.001885 0.653801
vt 0.001885 0.397240
vt 0.018674 0.397243
vt 0.051449 0.605144
vt 0.273637 0.605144
vt 0.314263 0.605144
vt 0.314273 0.397269
vt 0.273637 0.062313
vt 0.051449 0.062313
vt 0.051449 0.397271
vt 0.069956 0.397286
vt 0.069956 0.580717
vt 0.265498 0.086741
vt 0.069956 0.086741
vt 0.295756 0.580717
vt 0.298497 0.396829
vt 0.265498 0.580717
vt 0.252846 0.110329
vt 0.084420 0.110329
vt 0.281988 0.557129
vt 0.280220 0.398597
vt 0.708897 0.556976
vt 0.708897 0.724786
vt 0.924868 0.302758
vt 0.740753 0.302758
vt 0.924868 0.724786
vt 0.924868 0.556976
vt 0.740753 0.724786
vt 0.719370 0.556976
vt 0.719370 0.724786
vt 0.924868 0.313231
vt 0.740753 0.313231
vt 0.914394 0.724786
vt 0.914394 0.556976
vt 0.740753 0.714313
vt 0.924868 0.714312
vt 0.295756 0.086741
vt 0.298452 0.270638
vt 0.280211 0.268861
vt 0.281988 0.110329
vt 0.314263 0.062313
vt 0.314273 0.270201
vt 0.347734 0.270202
vt 0.347734 0.018781
vt 0.364523 0.270202
vt 0.364523 0.013656
vt 0.697107 0.470561
vt 0.684073 0.470561
vt 0.684073 0.296059
vt 0.697107 0.296059
vt 0.708897 0.470560
vt 0.708897 0.302758
vt 0.719371 0.470560
vt 0.719371 0.302758
vt 0.924868 0.470560
vt 0.914394 0.470560
vt 0.914394 0.302758
vt 0.931567 0.470561
vt 0.944600 0.470561
vt 0.944600 0.296059
vt 0.018674 0.270202
vt 0.001885 0.270202
vt 0.001885 0.013656
vt 0.051449 0.270200
vt 0.069956 0.270198
vt 0.084420 0.270197
vt 0.252269 0.270251
vt 0.355551 0.665465
vt 0.697107 0.744519
vt 0.708897 0.714313
vt 0.708897 0.313231
vt 0.697107 0.283025
vt 0.355551 0.001992
vt 0.292019 0.389322
vt 0.292166 0.278166
vt 0.279938 0.390076
vt 0.279972 0.277447
vt 0.259453 0.277121
vt 0.259222 0.390146
vt 0.678122 0.604210
vt 0.679050 0.800245
vt 0.666443 0.785120
vt 0.664991 0.781241
vt 0.664835 0.620852
vt 0.666685 0.616976
vt 0.141552 0.674299
vt 0.159964 0.686858
vt 0.158262 0.703039
vt 0.146452 0.697969
vt 0.145408 0.693089
vt 0.159959 0.946810
vt 0.141554 0.959370
vt 0.145415 0.940566
vt 0.146452 0.935681
vt 0.158258 0.930628
vt 0.218578 0.725823
vt 0.218750 0.908070
vt 0.209266 0.901236
vt 0.207095 0.897413
vt 0.207197 0.736107
vt 0.209101 0.732479
vt 0.196303 0.950783
vt 0.197237 0.934291
vt 0.197977 0.937513
vt 0.196302 0.682885
vt 0.197975 0.696156
vt 0.197235 0.699377
vt 0.541436 0.618702
vt 0.541333 0.783365
vt 0.170779 0.898837
vt 0.170835 0.734771
vt 0.146372 0.727835
vt 0.146212 0.731625
vt 0.028064 0.731700
vt 0.028522 0.727927
vt 0.159397 0.731042
vt 0.159295 0.734812
vt 0.166543 0.730133
vt 0.165848 0.734350
vt 0.146197 0.902025
vt 0.146364 0.905810
vt 0.028320 0.905565
vt 0.027841 0.901788
vt 0.159289 0.898855
vt 0.159391 0.902625
vt 0.165850 0.899320
vt 0.166543 0.903535
vt 0.200273 0.933923
vt 0.169526 0.902233
vt 0.166349 0.899170
vt 0.166408 0.734447
vt 0.200270 0.699745
vt 0.169524 0.731436
vt 0.147006 0.697236
vt 0.147019 0.700980
vt 0.028573 0.701739
vt 0.028404 0.698001
vt 0.147022 0.932671
vt 0.147008 0.936418
vt 0.028651 0.935445
vt 0.028776 0.931704
vt 0.159837 0.733704
vt 0.159761 0.899921
vt 0.662249 0.781859
vt 0.661229 0.778860
vt 0.660959 0.622822
vt 0.662262 0.619880
vt 0.612773 0.166741
vt 0.611728 0.168610
vt 0.610016 0.167416
vt 0.612105 0.163677
vt 0.448269 0.168610
vt 0.447224 0.166741
vt 0.447892 0.163677
vt 0.449981 0.167416
vt 0.611728 0.122258
vt 0.612773 0.124127
vt 0.612105 0.127190
vt 0.610016 0.123451
vt 0.447224 0.124127
vt 0.448269 0.122258
vt 0.449981 0.123451
vt 0.447892 0.127190
vt 0.634693 0.203432
vt 0.632235 0.207828
vt 0.679868 0.285269
vt 0.677976 0.288653
vt 0.679868 0.288653
vt 0.691066 0.285269
vt 0.691066 0.288653
vt 0.427762 0.207828
vt 0.425304 0.203432
vt 0.382021 0.288653
vt 0.380130 0.285269
vt 0.380130 0.288653
vt 0.368932 0.288653
vt 0.368932 0.285269
vt 0.632235 0.083039
vt 0.634693 0.087436
vt 0.677976 0.002214
vt 0.679867 0.005598
vt 0.679867 0.002214
vt 0.691064 0.002214
vt 0.691064 0.005597
vt 0.425304 0.087436
vt 0.427762 0.083039
vt 0.380130 0.005598
vt 0.382021 0.002214
vt 0.380130 0.002214
vt 0.368933 0.005598
vt 0.368933 0.002214
vt 0.677976 0.299851
vt 0.382021 0.299851
vt 0.677976 0.597487
vt 0.382021 0.597487
vt 0.382021 0.586290
vt 0.677976 0.586290
vt 0.002413 0.662886
vt 0.028360 0.698565
vt 0.027786 0.731140
vt 0.001885 0.767381
vt 0.002333 0.866888
vt 0.028091 0.902403
vt 0.028099 0.934941
vt 0.002037 0.971406
vt 0.145904 0.125932
vt 0.145516 0.254756
vt 0.240923 0.125279
vt 0.240340 0.255335
vt 0.152414 0.249407
vt 0.232857 0.250524
vt 0.236929 0.253140
vt 0.149289 0.253062
vt 0.148222 0.128583
vt 0.151191 0.131684
vt 0.151137 0.248596
vt 0.147953 0.252088
vt 0.237582 0.127392
vt 0.233882 0.129749
vt 0.152530 0.131042
vt 0.149487 0.127481
vt 0.238049 0.251779
vt 0.234183 0.249663
vt 0.234790 0.130935
vt 0.238667 0.128699
vt 0.153436 0.133420
vt 0.232278 0.131866
vt 0.231605 0.248283
vt 0.153513 0.246908
vt 0.000477 0.146561
vt 0.397722 0.146561
vt 0.397722 0.993381
vt 0.000477 0.993381
vt 0.602288 0.993381
vt 0.602288 0.146561
vt 0.999517 0.146561
vt 0.999517 0.993381
vt 0.000477 -0.001882
vt 0.397722 -0.001881
vt 0.602288 -0.001881
vt 0.999517 -0.001882
vn 0.0000 -0.9503 -0.3113
vn -0.0000 -0.9324 -0.3614
vn 0.0000 -1.0000 0.0000
vn 0.0000 1.0000 0.0000
vn 0.0000 0.9324 -0.3614
vn 0.0000 0.9503 -0.3113
vn 0.0000 -0.0000 -1.0000
vn 0.9767 -0.0000 -0.2147
vn 0.9833 -0.0000 -0.1820
vn 1.0000 0.0000 0.0000
vn -0.9833 0.0000 -0.1819
vn -0.9767 0.0000 -0.2147
vn -1.0000 0.0000 0.0000
vn -0.5080 0.0000 -0.8614
vn -0.4212 -0.0000 -0.9070
vn -0.0000 -0.5163 -0.8564
vn 0.0000 -0.3644 -0.9312
vn 0.4212 -0.0000 -0.9070
vn 0.5080 0.0000 -0.8614
vn 0.0000 0.3644 -0.9312
vn -0.0000 0.5163 -0.8564
vn -0.2444 -0.0000 -0.9697
vn -0.2637 0.0000 -0.9646
vn 0.0000 -0.2007 -0.9796
vn 0.2637 -0.0000 -0.9646
vn 0.2444 -0.0000 -0.9697
vn 0.0000 0.2007 -0.9796
vn 0.0000 0.7767 -0.6299
vn 0.5035 -0.0000 -0.8640
vn 0.0000 -0.7767 -0.6299
vn -0.5035 -0.0000 -0.8640
vn 0.0000 0.2665 -0.9638
vn 0.2058 -0.0000 -0.9786
vn 0.1029 -0.0000 -0.9947
vn 0.0662 0.0692 -0.9954
vn 0.0000 -0.2665 -0.9638
vn -0.2058 -0.0000 -0.9786
vn -0.0000 0.0000 1.0000
vn 0.0000 -0.3643 -0.9313
vn -0.0000 0.3643 -0.9313
vn 0.0000 0.0422 -0.9991
vn 0.9833 0.0000 -0.1819
vn 0.0000 0.5362 -0.8441
vn 0.7391 -0.1809 -0.6488
vn 0.7419 -0.0673 -0.6671
vn 0.7419 -0.0674 -0.6671
vn -0.7419 -0.0676 -0.6670
vn -0.7391 -0.1815 -0.6487
vn -0.7419 -0.0677 -0.6670
vn 0.0000 -0.7417 -0.6707
vn -0.7389 0.0013 -0.6738
vn 0.7389 0.0013 -0.6738
vn -0.0000 -0.9361 -0.3517
vn -0.8019 -0.1608 -0.5754
vn -0.8041 -0.0493 -0.5924
vn -0.8041 -0.0495 -0.5924
vn 0.8041 -0.0491 -0.5925
vn 0.8020 -0.1602 -0.5755
vn 0.8041 -0.0493 -0.5925
vn 0.0000 0.9863 0.1652
vn 0.8018 0.0006 -0.5976
vn -0.8018 0.0006 -0.5976
vn -0.0000 0.5635 -0.8261
vn -0.0000 0.5382 -0.8428
vn -0.7071 0.0001 -0.7071
vn -0.7071 0.0006 -0.7071
vn -0.7071 -0.0000 -0.7071
vn -0.7071 0.0011 -0.7071
vn -0.6374 0.3553 -0.6837
vn -0.6984 0.0244 -0.7153
vn 0.7071 0.0004 -0.7071
vn 0.7071 0.0002 -0.7071
vn 0.7071 -0.0000 -0.7071
vn 0.7071 0.0009 -0.7071
vn 0.6984 0.0244 -0.7153
vn 0.6374 0.3552 -0.6837
vn 0.6055 0.4375 -0.6648
vn 0.6069 0.4375 -0.6635
vn 0.6115 0.4326 -0.6625
vn 0.0000 0.1161 -0.9932
vn -0.6069 0.4375 -0.6635
vn -0.6055 0.4375 -0.6648
vn -0.6115 0.4326 -0.6625
vn -0.7071 0.0000 0.7071
vn 0.7071 0.0000 0.7071
vn 0.0000 0.0004 -1.0000
vn 0.0000 0.0003 -1.0000
vn 0.0000 0.0013 -1.0000
vn 0.0000 0.0016 -1.0000
vn 1.0000 -0.0001 0.0000
vn -1.0000 -0.0004 -0.0000
vn -1.0000 -0.0001 -0.0000
vn -1.0000 -0.0008 0.0000
vn 0.4336 0.4321 -0.7908
vn -0.4336 0.4321 -0.7908
vn -0.6219 -0.7245 -0.2973
vn 0.6221 -0.7242 -0.2975
vn -0.5492 0.8356 0.0129
vn -0.0032 0.8312 0.5559
vn -0.0001 0.8298 0.5580
vn -0.5577 0.8301 0.0003
vn 0.0032 0.8312 0.5559
vn 0.5492 0.8356 0.0129
vn 0.5577 0.8301 0.0003
vn 0.0001 0.8298 0.5580
vn -0.0032 0.8312 -0.5559
vn -0.5492 0.8356 -0.0129
vn -0.5577 0.8301 -0.0003
vn -0.0001 0.8298 -0.5580
vn 0.5492 0.8356 -0.0129
vn 0.0032 0.8312 -0.5559
vn 0.0001 0.8298 -0.5580
vn 0.5577 0.8301 -0.0003
vn -0.2473 0.9689 0.0055
vn -0.0023 0.9629 0.2698
vn -0.2128 0.9771 0.0080
vn -0.0037 0.9762 0.2170
vn 0.0023 0.9629 0.2698
vn 0.2473 0.9689 0.0055
vn 0.0037 0.9762 0.2170
vn 0.2128 0.9771 0.0080
vn -0.0023 0.9629 -0.2698
vn -0.2473 0.9689 -0.0055
vn -0.0037 0.9762 -0.2170
vn -0.2128 0.9771 -0.0080
vn 0.2473 0.9689 -0.0055
vn 0.0023 0.9629 -0.2698
vn 0.2128 0.9771 -0.0080
vn 0.0037 0.9762 -0.2170
vn 0.7071 -0.7071 0.0000
vn 0.8288 -0.0050 -0.5596
vn 0.0023 -0.6336 -0.7737
vn -0.0023 -0.6336 -0.7737
vn -0.7071 -0.7071 0.0000
vn -0.8288 -0.0050 -0.5596
vn -0.7071 0.7071 0.0000
vn 0.0000 0.7397 -0.6730
vn 0.7071 0.7071 0.0000
vn 0.0000 -0.7071 -0.7071
vn 0.0000 0.7071 -0.7071
vn 0.3493 -0.3493 -0.8694
vn -0.3493 -0.3493 -0.8694
vn -0.3027 0.3027 -0.9038
vn 0.3027 0.3027 -0.9038
vn 0.5774 -0.5774 -0.5773
vn -0.5774 -0.5773 -0.5774
vn -0.5774 0.5773 -0.5774
vn 0.5774 0.5774 -0.5773
usemtl phong1
s 1
f 10/1/1 48/2/2 49/3/3 3/4/3
f 5/5/4 52/6/4 53/7/5 9/8/6
f 21/9/7 43/10/7 58/11/7 59/12/7
f 68/13/8 12/14/9 6/15/10 67/16/10
f 9/17/11 63/18/12 64/19/13 5/5/13
f 13/20/14 62/21/15 63/22/12 9/23/11
f 14/24/16 47/25/17 48/26/2 10/27/1
f 69/28/18 16/29/19 12/30/9 68/31/8
f 9/32/6 53/33/5 54/34/20 13/20/21
f 7/35/22 61/36/23 62/21/15 13/20/14
f 1/37/24 46/38/24 47/25/17 14/24/16
f 70/39/25 8/40/26 16/29/19 69/28/18
f 13/20/21 54/34/20 55/41/27 7/35/27
f 7/35/28 55/41/28 56/42/28 17/43/28
f 8/40/26 70/39/25 71/44/29 18/45/29
f 46/38/30 1/37/30 20/46/30 45/47/30
f 61/36/23 7/35/22 17/43/31 60/48/31
f 17/43/32 56/42/32 43/10/32 21/9/32
f 18/45/33 71/44/33 72/49/34 22/50/35
f 45/47/36 20/46/36 24/51/36 44/52/36
f 60/48/37 17/43/37 21/9/37 59/12/37
f 3/4/38 49/3/38 50/53/38 25/54/38
f 67/16/38 6/15/38 27/55/38 66/56/38
f 52/6/38 5/5/38 28/57/38 51/58/38
f 5/5/38 64/19/38 65/59/38 28/57/38
f 25/54/4 50/53/4 179/60/4 173/61/4
f 66/56/13 27/55/13 175/62/13 184/63/13
f 51/58/3 28/57/3 176/64/3 180/65/3
f 28/57/10 65/59/10 181/66/10 176/67/10
f 19/68/36 31/69/36 30/70/36 23/71/36
f 2/72/30 32/73/30 31/69/30 19/68/30
f 33/74/39 32/73/24 2/72/24 15/75/16
f 34/76/2 33/74/39 15/75/16 11/77/1
f 35/78/3 34/79/2 11/80/1 4/81/3
f 36/82/38 35/78/38 4/81/38 26/83/38
f 177/84/4 36/82/4 26/83/4 174/85/4
f 27/55/3 37/86/3 178/87/3 175/88/3
f 6/15/38 38/89/38 37/86/38 27/55/38
f 39/90/5 38/89/4 6/15/4 12/91/6
f 40/92/40 39/93/5 12/94/6 16/29/21
f 41/95/27 40/92/40 16/29/21 8/40/27
f 42/96/28 41/95/28 8/40/28 18/45/28
f 29/97/41 42/96/32 18/45/32 22/50/35
f 43/10/7 29/97/41 57/98/7 58/11/7
f 32/73/30 46/38/30 45/47/30 31/69/30
f 47/25/17 46/38/24 32/73/24 33/74/39
f 48/26/2 47/25/17 33/74/39 34/76/2
f 49/3/3 48/2/2 34/79/2 35/78/3
f 50/53/38 49/3/38 35/78/38 36/82/38
f 179/60/4 50/53/4 36/82/4 177/84/4
f 37/86/3 51/58/3 180/65/3 178/87/3
f 38/89/38 52/6/38 51/58/38 37/86/38
f 53/7/5 52/6/4 38/89/4 39/90/5
f 54/34/20 53/33/5 39/93/5 40/92/40
f 55/41/27 54/34/20 40/92/40 41/95/27
f 56/42/28 55/41/28 41/95/28 42/96/28
f 43/10/32 56/42/32 42/96/32 29/97/41
f 59/12/7 58/11/7 44/52/7 24/51/7
f 20/46/37 60/48/37 59/12/37 24/51/37
f 1/37/22 61/36/23 60/48/31 20/46/31
f 62/21/15 61/36/23 1/37/22 14/24/14
f 63/22/12 62/21/15 14/24/14 10/99/11
f 64/19/13 63/18/12 10/100/11 3/4/13
f 65/59/38 64/19/38 3/4/38 25/54/38
f 181/66/10 65/59/10 25/54/10 173/101/10
f 26/83/13 66/56/13 184/63/13 174/102/13
f 4/81/38 67/16/38 66/56/38 26/83/38
f 11/103/42 68/13/8 67/16/10 4/81/10
f 15/75/19 69/28/18 68/31/8 11/104/42
f 2/72/26 70/39/25 69/28/18 15/75/19
f 71/44/29 70/39/25 2/72/26 19/68/29
f 72/49/34 71/44/33 19/68/33 23/71/33
f 57/98/7 72/49/34 23/71/7 30/70/7
f 31/69/43 45/47/43 73/105/43 74/106/43
f 45/47/44 44/52/45 75/107/46 73/105/44
f 30/70/47 31/69/48 74/106/48 76/108/49
f 58/11/50 57/98/50 77/109/50 78/110/50
f 57/98/51 30/70/47 76/108/49 77/109/51
f 44/52/45 58/11/52 78/110/52 75/107/46
f 74/111/53 73/112/53 102/113/53 101/114/53 110/115/53 109/116/53
f 73/117/54 75/118/55 79/119/56 103/120/54 102/121/54
f 76/122/57 74/123/58 109/124/58 108/125/58 80/126/59
f 78/127/60 77/128/60 90/129/60 89/130/60 97/131/60 96/132/60
f 77/133/61 76/122/57 80/126/59 91/134/61 90/135/61
f 75/118/55 78/136/62 96/137/62 95/138/62 79/119/56
f 112/139/38 110/115/38 101/114/38 105/140/38
f 89/130/63 94/141/64 100/142/64 97/131/63
f 81/143/65 82/144/66 114/145/67 113/146/67
f 82/144/66 81/143/65 84/147/66 83/148/68
f 83/148/68 84/147/66 99/149/69 98/150/70
f 85/151/71 86/152/72 116/153/73 115/154/73
f 86/152/72 85/151/71 88/155/74 87/156/74
f 87/156/74 88/155/74 93/157/75 92/158/76
f 89/159/77 91/134/78 92/158/76 94/160/79
f 94/141/64 93/161/80 98/162/80 100/142/64
f 95/138/81 97/163/82 100/164/83 99/149/69
f 101/165/84 104/166/84 106/167/84 105/168/84
f 107/169/85 110/170/85 112/171/85 111/172/85
f 85/151/86 82/144/87 83/173/88 88/174/89
f 80/126/10 108/125/90 107/169/10 86/152/10 87/156/10
f 87/156/10 92/158/10 91/134/10 80/126/10
f 79/119/91 95/138/13 99/149/13 84/147/91
f 106/167/13 104/166/92 81/143/91 113/146/13
f 82/144/87 85/151/86 115/154/7 114/145/7
f 86/152/10 107/169/10 111/172/10 116/153/10
f 104/166/92 103/120/93 79/119/91 84/147/91 81/143/91
f 83/173/88 98/162/80 93/161/80 88/174/89
f 89/159/77 90/135/94 91/134/78
f 92/158/76 93/157/75 94/160/79
f 95/138/81 96/137/95 97/163/82
f 98/150/70 99/149/69 100/164/83
f 101/114/96 102/113/96 103/175/96 104/176/96
f 107/177/97 108/178/97 109/116/97 110/115/97
f 141/179/98 142/180/99 105/181/100 106/182/101
f 143/183/102 144/184/103 111/185/104 112/186/105
f 145/187/106 146/188/107 113/189/108 114/190/109
f 147/191/110 148/192/111 115/193/112 116/194/113
f 117/195/114 118/196/115 142/180/99 141/179/98
f 118/196/115 117/195/114 120/197/116 119/198/117
f 119/199/84 120/197/84 133/200/84 134/201/84
f 121/202/118 122/203/119 144/184/103 143/183/102
f 122/203/119 121/202/118 124/204/120 123/205/121
f 123/205/85 124/206/85 136/207/85 135/208/85
f 125/209/122 126/210/123 146/188/107 145/187/106
f 126/210/123 125/209/122 128/211/124 127/212/125
f 127/212/67 128/213/67 137/214/67 138/215/67
f 129/216/126 130/217/127 148/192/111 147/191/110
f 130/217/127 129/216/126 132/218/128 131/219/129
f 131/220/73 132/218/73 139/221/73 140/222/73
f 121/202/118 118/196/115 119/198/117 124/204/120
f 117/195/114 126/210/123 127/212/125 120/197/116
f 125/209/122 130/217/127 131/219/129 128/211/124
f 129/216/126 122/203/119 123/205/121 132/218/128
f 124/204/38 119/198/38 134/223/38 136/224/38
f 120/197/13 127/212/13 138/215/13 133/200/13
f 128/225/7 131/226/7 140/227/7 137/228/7
f 132/218/10 123/205/10 135/208/10 139/221/10
f 117/229/114 141/230/98 106/167/101 113/146/108 146/231/107 126/232/123
f 121/202/118 143/183/102 112/186/105 105/181/100 142/180/99 118/196/115
f 125/209/122 145/187/106 114/190/109 115/193/112 148/192/111 130/217/127
f 129/233/126 147/234/110 116/153/113 111/172/104 144/235/103 122/236/119
f 29/97/41 22/50/35 154/237/7 151/238/7
f 22/50/35 72/49/34 157/239/7 154/237/7
f 72/49/34 57/98/7 160/240/7 157/239/7
f 57/98/7 29/97/41 151/238/7 160/240/7
f 162/241/10 170/242/10 158/243/10 150/244/10
f 153/245/3 166/246/3 163/247/3 149/248/3
f 156/249/13 169/250/13 164/251/13 152/252/13
f 159/253/4 172/254/4 167/255/4 155/256/4
f 165/257/7 168/258/7 171/259/7 161/260/7
f 150/244/130 149/248/130 163/247/130 162/241/130
f 151/238/131 150/244/131 158/243/131 160/240/131
f 149/248/132 151/238/132 154/237/133 153/245/133
f 153/245/134 152/252/134 164/251/134 166/246/134
f 152/252/135 154/237/135 157/239/135 156/249/135
f 156/249/136 155/256/136 167/255/136 169/250/136
f 155/256/137 157/239/137 160/240/137 159/253/137
f 159/253/138 158/243/138 170/242/138 172/254/138
f 162/241/73 161/260/73 171/259/73 170/242/73
f 161/260/139 163/247/139 166/246/139 165/257/139
f 165/257/67 164/251/67 169/250/67 168/258/67
f 168/258/140 167/255/140 172/254/140 171/259/140
f 149/248/132 150/244/141 151/238/132
f 152/252/142 153/245/133 154/237/133
f 155/256/143 156/249/143 157/239/143
f 158/243/144 159/253/144 160/240/144
f 161/260/145 162/241/145 163/247/145
f 164/251/146 165/257/146 166/246/146
f 167/255/147 168/258/147 169/250/147
f 170/242/148 171/259/148 172/254/148
usemtl Screen
f 181/261/38 182/262/38 180/263/38 176/264/38
f 178/265/38 183/266/38 184/267/38 175/268/38
f 180/263/38 182/262/38 183/266/38 178/265/38
f 173/269/38 179/270/38 182/262/38 181/261/38
f 183/266/38 182/262/38 179/270/38 177/271/38
f 184/267/38 183/266/38 177/271/38 174/272/38
